{
  "accessors": [
    {
      "bufferView": 2,
      "componentType": 5126,
      "count": 59382,
      "max": [
        0.9976130127906799,
        0.9146019816398621,
        0.6880149841308594
      ],
      "min": [
        -0.9962790012359619,
        -0.9108610153198242,
        -0.6953930258750916
      ],
      "type": "VEC3"
    },
    {
      "bufferView": 2,
      "byteOffset": 712584,
      "componentType": 5126,
      "count": 59382,
      "max": [
        0.999996542930603,
        0.9999303817749023,
        0.999983549118042
      ],
      "min": [
        -0.9999947547912598,
        -0.9999756813049316,
        -0.99997478723526
      ],
      "type": "VEC3"
    },
    {
      "bufferView": 3,
      "componentType": 5126,
      "count": 59382,
      "max": [
        0.9999899864196777,
        0.9999898672103882,
        0.9999912977218628,
        1.0
      ],
      "min": [
        -0.9999797344207764,
        -0.9999697208404541,
        -0.999998927116394,
        -1.0
      ],
      "type": "VEC4"
    },
    {
      "bufferView": 1,
      "componentType": 5126,
      "count": 59382,
      "max": [
        1.0,
        1.0
      ],
      "min": [
        5.2988529205322266e-05,
        0.0012302398681640625
      ],
      "type": "VEC2"
    },
    {
      "bufferView": 1,
      "byteOffset": 475056,
      "componentType": 5126,
      "count": 59382,
      "max": [
        1.0,
        1.0
      ],
      "min": [
        5.2988529205322266e-05,
        0.0012302398681640625
      ],
      "type": "VEC2"
    },
    {
      "bufferView": 1,
      "byteOffset": 950112,
      "componentType": 5126,
      "count": 59382,
      "max": [
        1.0,
        1.0
      ],
      "min": [
        5.2988529205322266e-05,
        0.0012302398681640625
      ],
      "type": "VEC2"
    },
    {
      "bufferView": 1,
      "byteOffset": 1425168,
      "componentType": 5126,
      "count": 59382,
      "max": [
        1.0,
        1.0
      ],
      "min": [
        5.2988529205322266e-05,
        0.0012302398681640625
      ],
      "type": "VEC2"
    },
    {
      "bufferView": 0,
      "componentType": 5125,
      "count": 283845,
      "type": "SCALAR"
    }
  ],
  "asset": {
    "extras": {
      "author": "begimqulovamalika616 (https://sketchfab.com/ebblender)",
      "license": "CC-BY-4.0 (http://creativecommons.org/licenses/by/4.0/)",
      "source": "https://sketchfab.com/3d-models/ancient-warriors-armor-c71c5e52370f472ebb1720ecfa6ab343",
      "title": "Ancient Warrior's Armor"
    },
    "generator": "Sketchfab-16.73.0",
    "version": "2.0"
  },
  "bufferViews": [
    {
      "buffer": 0,
      "byteLength": 1135380,
      "name": "floatBufferViews",
      "target": 34963
    },
    {
      "buffer": 0,
      "byteLength": 1900224,
      "byteOffset": 1135380,
      "byteStride": 8,
      "name": "floatBufferViews",
      "target": 34962
    },
    {
      "buffer": 0,
      "byteLength": 1425168,
      "byteOffset": 3035604,
      "byteStride": 12,
      "name": "floatBufferViews",
      "target": 34962
    },
    {
      "buffer": 0,
      "byteLength": 950112,
      "byteOffset": 4460772,
      "byteStride": 16,
      "name": "floatBufferViews",
      "target": 34962
    }
  ],
  "buffers": [
    {
      "byteLength": 5410884,
      "uri": "scene.bin"
    }
  ],
  "images": [
    {
      "uri": "textures/material_0_baseColor.jpeg"
    },
    {
      "uri": "textures/material_0_metallicRoughness.png"
    },
    {
      "uri": "textures/material_0_normal.jpeg"
    }
  ],
  "materials": [
    {
      "doubleSided": true,
      "name": "material_0",
      "normalTexture": {
        "index": 2
      },
      "pbrMetallicRoughness": {
        "baseColorTexture": {
          "index": 0
        },
        "metallicRoughnessTexture": {
          "index": 1
        }
      }
    }
  ],
  "meshes": [
    {
      "name": "Object_0",
      "primitives": [
        {
          "attributes": {
            "NORMAL": 1,
            "POSITION": 0,
            "TANGENT": 2,
            "TEXCOORD_0": 3,
            "TEXCOORD_1": 4,
            "TEXCOORD_2": 5,
            "TEXCOORD_3": 6
          },
          "indices": 7,
          "material": 0,
          "mode": 4
        }
      ]
    }
  ],
  "nodes": [
    {
      "children": [
        1
      ],
      "matrix": [
        1.0,
        0.0,
        0.0,
        0.0,
        0.0,
        2.220446049250313e-16,
        -1.0,
        0.0,
        0.0,
        1.0,
        2.220446049250313e-16,
        0.0,
        0.0,
        0.0,
        0.0,
        1.0
      ],
      "name": "Sketchfab_model"
    },
    {
      "children": [
        2
      ],
      "name": "root"
    },
    {
      "children": [
        3
      ],
      "matrix": [
        1.0,
        0.0,
        0.0,
        0.0,
        0.0,
        2.220446049250313e-16,
        1.0,
        0.0,
        0.0,
        -1.0,
        2.220446049250313e-16,
        0.0,
        0.0,
        0.0,
        0.0,
        1.0
      ],
      "name": "GLTF_SceneRootNode"
    },
    {
      "children": [
        4
      ],
      "name": "_0"
    },
    {
      "mesh": 0,
      "name": "Object_4"
    }
  ],
  "samplers": [
    {
      "magFilter": 9729,
      "minFilter": 9987,
      "wrapS": 10497,
      "wrapT": 10497
    }
  ],
  "scene": 0,
  "scenes": [
    {
      "name": "Sketchfab_Scene",
      "nodes": [
        0
      ]
    }
  ],
  "textures": [
    {
      "sampler": 0,
      "source": 0
    },
    {
      "sampler": 0,
      "source": 1
    },
    {
      "sampler": 0,
      "source": 2
    }
  ]
}
